<svg width="48" height="48" viewBox="0 0 48 48" fill="none" xmlns="http://www.w3.org/2000/svg">
<path fill-rule="evenodd" clip-rule="evenodd" d="M7.73284 37.9477L4.7371 40.9468C3.15994 42.5257 1.57576 44.1103 0 45.69V37.9554L0.00629906 37.9477H7.73284Z" fill="#F61E2E"/>
<path fill-rule="evenodd" clip-rule="evenodd" d="M34.5042 37.9477V48H2.3165L6.90825 43.4044L8.95573 41.3609L12.3588 37.9477H34.5042Z" fill="#F61E2E"/>
<path fill-rule="evenodd" clip-rule="evenodd" d="M34.5042 15.7904V34.6729H15.6369C21.8372 28.4711 28.2158 22.0838 34.5042 15.7904Z" fill="#F61E2E"/>
<path fill-rule="evenodd" clip-rule="evenodd" d="M48 2.26596V48H37.7753V12.5079C39.6201 10.6617 41.4649 8.81338 43.3034 6.96718L48 2.26596Z" fill="#F61E2E"/>
<path fill-rule="evenodd" clip-rule="evenodd" d="M45.6381 0C33.3051 12.3589 21.6583 24.0245 11.0109 34.6729H3.23891L37.4671 0H45.6381Z" fill="#F61E2E"/>
<path fill-rule="evenodd" clip-rule="evenodd" d="M32.867 0L0 33.2961V0H32.867Z" fill="#F61E2E"/>
</svg>
